<?xml version="1.0" standalone="no"?>
<!DOCTYPE svg PUBLIC "-//W3C//DTD SVG 20010904//EN"
 "http://www.w3.org/TR/2001/REC-SVG-20010904/DTD/svg10.dtd">
<svg version="1.0" xmlns="http://www.w3.org/2000/svg"
 width="260.000000pt" height="260.000000pt" viewBox="0 0 260.000000 260.000000"
 preserveAspectRatio="xMidYMid meet">
<metadata>
Created by potrace 1.14, written by Peter Selinger 2001-2017
</metadata>
<g transform="translate(0.000000,260.000000) scale(0.100000,-0.100000)"
fill="#000000" stroke="none">
<path d="M282 2573 c-58 -20 -60 -23 -97 -223 -14 -74 -33 -156 -41 -182 -16
-49 -21 -119 -10 -136 5 -9 40 -181 62 -312 19 -110 26 -130 55 -155 l31 -25
244 0 244 0 0 -240 0 -239 -260 -3 -260 -3 -25 -26 c-22 -22 -30 -50 -61 -215
-46 -246 -51 -278 -48 -295 1 -8 5 -34 9 -59 4 -24 8 -47 10 -50 1 -3 6 -27 9
-54 4 -27 9 -52 11 -56 2 -3 6 -24 10 -47 12 -85 33 -170 46 -190 29 -47 1
-46 1081 -47 1013 -1 1023 -1 1053 19 35 24 51 54 59 110 4 23 8 50 11 60 2
11 18 89 35 173 l31 152 -21 118 c-12 64 -23 119 -25 122 -2 3 -6 21 -9 40
-26 161 -40 204 -76 230 -26 19 -43 20 -283 20 l-255 0 0 240 0 240 255 0
c278 0 300 4 321 57 11 26 33 128 47 213 3 19 15 82 27 140 11 57 20 120 20
140 1 19 -15 107 -35 195 -20 88 -39 177 -42 198 -9 45 -54 97 -87 98 -12 0
-468 1 -1013 2 -727 2 -998 -1 -1023 -10z m1924 -206 c2 -2 6 -24 9 -48 3 -24
8 -61 10 -81 4 -26 1 -38 -7 -39 -7 0 -78 -2 -158 -4 -80 -2 -154 -5 -165 -8
-72 -17 -111 -31 -134 -45 -78 -48 -129 -123 -150 -221 -8 -36 -10 -203 -9
-533 l3 -480 33 -29 32 -29 269 0 268 0 17 -93 c9 -50 19 -104 23 -120 l5 -28
-304 1 c-322 1 -385 8 -450 48 -18 12 -43 38 -55 59 -40 72 -42 96 -47 703 -2
325 -4 362 -24 432 -38 138 -92 214 -190 266 -118 63 -206 75 -555 76 l-248 1
6 75 c4 41 7 80 8 85 1 6 43 12 92 15 104 6 1715 3 1721 -3z m-1266 -392 c123
-17 195 -62 219 -137 25 -80 27 -112 35 -778 2 -179 7 -343 11 -365 23 -127
91 -218 188 -251 105 -36 170 -41 522 -43 176 -1 321 -3 322 -5 2 -1 -4 -39
-13 -84 l-17 -82 -101 -1 c-401 -2 -1698 0 -1701 3 -6 5 -37 160 -33 163 2 1
48 5 103 8 304 19 460 117 501 317 5 23 7 431 5 808 l-1 154 -34 34 -34 34
-254 0 c-234 0 -254 1 -255 18 -1 9 -11 59 -22 111 -11 51 -19 97 -16 100 5 9
506 6 575 -4z m1306 -36 c-4 -29 -11 -71 -16 -93 -5 -23 -11 -53 -15 -68 l-5
-28 -201 0 -200 0 2 65 c3 106 39 153 123 165 22 3 103 7 180 8 l138 3 -6 -52z
m-1476 -1139 c0 -49 -18 -100 -46 -127 -19 -20 -97 -52 -136 -58 -43 -6 -249
-7 -254 -2 -3 2 8 57 23 121 l27 116 193 0 193 0 0 -50z"/>
</g>
</svg>
